<svg xmlns="http://www.w3.org/2000/svg" data-name="Computer Source" viewBox="0 0 24 24" width="256" height="256"><path fill="#0d1515" d="M9.88 6.18a.5.5 0 0 0-.7-.06l-3 2.5a.5.5 0 0 0 0 .77l3 2.5a.5.5 0 1 0 .64-.77L7.28 9l2.54-2.12a.5.5 0 0 0 .06-.7zm4.94-.06a.5.5 0 0 0-.64.77L16.72 9l-2.54 2.12a.5.5 0 0 0 .64.77l3-2.5a.5.5 0 0 0 0-.77zM13.7 5a.5.5 0 0 0-.7.3l-3 7a.5.5 0 0 0 .26.66.49.49 0 0 0 .2 0 .5.5 0 0 0 .46-.3l3-7A.5.5 0 0 0 13.7 5z" class="color303c42 svgShape"></path><path fill="#0d1515" d="M22 1H2a2 2 0 0 0-2 2v14a2 2 0 0 0 2 2h7a4.52 4.52 0 0 1-.75 2.68 1 1 0 0 1-.75.32.5.5 0 0 0 0 1h9a.5.5 0 0 0 0-1 1 1 0 0 1-.76-.32A4.53 4.53 0 0 1 15 19h7a2 2 0 0 0 2-2V3a2 2 0 0 0-2-2ZM12 18a1 1 0 1 1 1-1 1 1 0 0 1-1 1ZM2 15V3h20v12Z" class="color303c42 svgShape"></path></svg>